<?xml version="1.0" encoding="UTF-8" standalone="no"?>
<!-- Created with Inkscape (http://www.inkscape.org/) -->

<svg
   width="210mm"
   height="297mm"
   viewBox="0 0 210 297"
   version="1.1"
   id="svg1"
   sodipodi:docname="fy.svg"
   inkscape:version="1.4.2 (f4327f4, 2025-05-13)"
   xmlns:inkscape="http://www.inkscape.org/namespaces/inkscape"
   xmlns:sodipodi="http://sodipodi.sourceforge.net/DTD/sodipodi-0.dtd"
   xmlns="http://www.w3.org/2000/svg"
   xmlns:svg="http://www.w3.org/2000/svg">
  <sodipodi:namedview
     id="namedview1"
     pagecolor="#ffffff"
     bordercolor="#000000"
     borderopacity="0.25"
     inkscape:showpageshadow="2"
     inkscape:pageopacity="0.0"
     inkscape:pagecheckerboard="0"
     inkscape:deskcolor="#d1d1d1"
     inkscape:document-units="mm"
     inkscape:zoom="0.44097222"
     inkscape:cx="395.71654"
     inkscape:cy="561.25984"
     inkscape:window-width="1366"
     inkscape:window-height="697"
     inkscape:window-x="-8"
     inkscape:window-y="-8"
     inkscape:window-maximized="1"
     inkscape:current-layer="layer1" />
  <defs
     id="defs1" />
  <g
     inkscape:label="Layer 1"
     inkscape:groupmode="layer"
     id="layer1">
    <path
       style="fill:#000000;stroke-width:0.264583"
       id="path13"
       d="m 87.332602,108.58866 c 0.0893,3.53758 0.472091,7.05215 1.116782,10.52919 0.962491,4.18602 2.405777,8.35202 5.110512,11.75997 0.638778,0.80486 1.384557,1.51867 2.076836,2.27801 3.88833,3.59785 8.696538,6.10146 13.982488,6.83791 3.84836,0.53616 5.03595,0.25575 8.94153,0.006 7.82223,-0.99956 15.36898,-3.74981 22.00122,-8.03052 1.22206,-0.78877 2.36646,-1.69182 3.5497,-2.53773 3.66504,-2.88605 7.05588,-6.14937 9.62167,-10.06882 1.17412,-1.79356 1.51305,-2.59409 2.45723,-4.47165 1.28382,-2.75073 2.0802,-5.68894 2.44748,-8.69554 0.0771,-0.679 0.24357,-1.36588 -0.31405,-1.86419 0,0 -1.84101,-0.71482 -1.84101,-0.71482 v 0 c 0.68618,0.27605 0.51741,1.10931 0.47859,1.7022 -0.27634,3.01498 -0.99537,5.96525 -2.24892,8.73153 -0.91302,1.86888 -1.25302,2.6916 -2.39145,4.4803 -2.50005,3.92804 -5.81044,7.23284 -9.44568,10.11559 -1.17311,0.84701 -2.30627,1.75228 -3.51932,2.54103 -6.60364,4.29389 -14.15108,7.01675 -21.95818,7.97843 -1.54139,0.0864 -3.08042,0.27364 -4.62415,0.25906 -3.61116,-0.0341 -4.84681,-0.40266 -8.27234,-1.23559 -0.68521,-0.1666 -1.4038,-0.2547 -2.04083,-0.55713 -2.26666,-1.07608 -3.439007,-2.26303 -5.327235,-3.84866 -0.685766,-0.74801 -1.42485,-1.45042 -2.057294,-2.24401 -2.691622,-3.37747 -4.136401,-7.51336 -5.08377,-11.6706 -0.623843,-3.42699 -1.022163,-6.90696 -0.925016,-10.39647 z" />
    <circle
       id="path14"
       style="fill:#000000;stroke:#000000;stroke-width:0.264583"
       cx="115.2"
       cy="169.8"
       r="0.079919413" />
    <circle
       id="path15"
       style="fill:#000000;stroke:#000000;stroke-width:0.264583"
       cx="115.2"
       cy="169.8"
       r="0.079919413" />
    <path
       style="fill:#000000;stroke-width:0.264583"
       id="path16"
       d="m 117.86621,139.69798 c -0.30403,3.39058 -0.66486,6.77612 -0.96833,10.16706 -0.25599,5.03215 -0.15542,10.07355 -0.12678,15.10978 0.0981,3.4668 0.34329,6.92689 0.48349,10.39194 0.0119,0.98409 0.0948,1.96998 0.0701,2.95448 0.004,0.45714 0.003,0.91445 -0.003,1.37159 0,0.31847 -0.007,0.6371 -0.003,0.95557 0.004,0.35796 0.003,0.71586 -0.003,1.07379 0.005,0.24093 0.002,0.48194 -0.003,0.72284 0.52939,0.22168 1.04943,0.46718 1.58817,0.66504 0.25547,0.0938 -0.44715,-0.31149 -0.68277,-0.44769 -1.17795,-0.6809 -2.22341,-1.30883 -3.45969,-1.79772 -1.26167,-0.76046 -2.77504,-0.85031 -4.10335,-1.38203 -0.85115,-0.30942 -1.73139,-0.52654 -2.63311,-0.61084 -0.67225,-0.0566 -1.34756,-0.0532 -2.02163,-0.0573 -0.4526,7.9e-4 -0.90519,0.005 -1.35778,0.003 0.0154,0.0922 -0.46958,-0.21064 -0.46763,-0.20954 0.51424,0.28951 2.12394,0.93427 1.53634,0.87971 -4.51953,-0.41968 -0.99978,-1.12486 -2.18138,-0.8727 -0.39632,0.12685 -0.81246,0.15782 -1.22499,0.18591 -0.67093,0.024 -1.33322,-0.003 -1.99552,0.11419 -1.077212,0.18635 -2.158318,0.34849 -3.246705,0.45245 -0.754134,-0.0523 -1.424697,0.23113 -2.12715,0.44526 -0.376279,0.1271 -0.760288,0.18336 -1.154641,0.20394 -0.292965,0.0118 -0.586132,0.002 -0.879182,0.004 -0.372689,-0.0464 -0.632941,0.21976 -0.940982,0.40361 -0.282649,0.1708 -0.634397,0.17644 -0.95631,0.1915 -0.191895,0.007 -0.384006,0.008 -0.575792,-0.001 -0.183758,0.14067 0.0019,0.35199 0.152998,0.50682 1.236634,1.75702 2.384084,3.56093 3.408143,5.44986 2.019588,3.65827 3.701219,7.48596 5.529175,11.24074 1.945176,4.13581 4.214436,8.10046 6.511756,12.04636 1.57731,2.6137 3.27997,5.14855 4.99942,7.66972 0.65904,1.1272 1.52797,2.07339 2.37336,3.05649 0.36893,0.51637 0.81277,0.97367 1.20446,1.4709 0.27185,0.32268 0.59744,0.56445 0.78596,0.94823 0.12288,0.28457 0.36063,0.49625 0.53887,0.7497 0.13341,0.34681 0.43228,0.57451 0.6033,0.89624 0.0734,0.15407 0.12572,0.31636 0.16783,0.48128 0.002,0.0452 0.0155,-0.002 0.0228,-0.003 0,0 1.75596,0.95671 1.75596,0.95671 v 0 c 0.009,-0.0282 0.0264,-0.0495 0.0169,-0.0816 -0.0345,-0.18369 -0.0932,-0.36146 -0.16341,-0.53474 -0.15431,-0.35971 -0.4494,-0.57152 -0.58437,-0.92303 -0.17683,-0.25699 -0.38036,-0.50324 -0.55683,-0.71847 -0.17692,-0.41916 -0.42482,-0.70016 -0.78122,-0.98463 -0.33188,-0.54429 -0.89281,-0.94198 -1.21777,-1.49924 -0.86312,-0.99987 -1.78464,-1.92139 -2.45852,-3.07072 -1.76025,-2.52764 -3.4997,-5.07201 -5.10594,-7.70189 -2.31477,-3.94559 -4.62925,-7.89564 -6.55583,-12.05155 -1.808858,-3.73743 -3.464546,-7.54904 -5.435271,-11.20584 -0.984758,-1.86994 -2.101509,-3.64874 -3.255478,-5.41648 -0.297598,-0.49461 -0.137568,-0.29019 -0.34385,-0.10548 0.189912,-0.005 0.379838,-0.0109 0.569439,-0.0234 0.350604,-0.0268 0.713163,-0.0663 1.012063,-0.26907 0.288986,-0.17775 0.524068,-0.36823 0.88048,-0.31334 0.296151,0.004 0.593236,0.004 0.888773,-0.0158 0.39955,-0.0372 0.786598,-0.11796 1.166103,-0.25194 0.687919,-0.22396 1.355685,-0.45213 2.094566,-0.41954 1.085323,-0.11933 2.159955,-0.31531 3.241185,-0.46629 0.67171,-0.0764 1.34382,-0.0485 2.01861,-0.0825 0.41637,-0.0388 0.83158,-0.0868 1.23495,-0.20276 0.0674,-0.01 0.25618,0.0118 0.20212,-0.0296 -0.46527,-0.35618 -2.03017,-1.15005 -1.47992,-0.94864 0.56042,0.20513 1.51708,1.20669 2.37346,1.21117 0.44984,-0.005 0.89971,-0.006 1.34956,-0.008 0.66573,-0.004 1.33285,7.9e-4 1.99602,0.0656 0.88714,0.11577 1.75582,0.31591 2.59311,0.63742 1.36501,0.43337 2.79521,0.67315 4.0745,1.37022 0.535,0.22713 2.78647,1.39498 0.15252,-0.0927 -0.13021,-0.0736 0.24261,0.17503 0.3671,0.25789 0.70247,0.46757 1.64072,0.82123 2.3121,1.1399 -0.005,-0.24195 -0.008,-0.484 -0.003,-0.72598 -0.006,-0.35876 -0.006,-0.71748 -0.002,-1.07626 0.005,-0.3187 -0.002,-0.63755 5.3e-4,-0.95626 -0.003,-0.45922 0.002,-0.91843 -5.3e-4,-1.37765 -0.0535,-1.00326 -0.061,-2.00991 -0.16513,-3.01084 -0.23383,-3.48473 -0.4936,-6.96858 -0.63356,-10.45867 -0.0504,-5.02649 -0.14522,-10.06071 0.14261,-15.08181 0.34011,-3.35264 0.66225,-6.70921 1.16441,-10.04225 z" />
  </g>
</svg>
