<?xml version="1.0" encoding="UTF-8" standalone="no"?>
<!-- Created with Inkscape (http://www.inkscape.org/) -->

<svg
   width="210mm"
   height="297mm"
   viewBox="0 0 210 297"
   version="1.1"
   id="svg1"
   sodipodi:docname="ze.svg"
   inkscape:version="1.4.2 (f4327f4, 2025-05-13)"
   xmlns:inkscape="http://www.inkscape.org/namespaces/inkscape"
   xmlns:sodipodi="http://sodipodi.sourceforge.net/DTD/sodipodi-0.dtd"
   xmlns="http://www.w3.org/2000/svg"
   xmlns:svg="http://www.w3.org/2000/svg">
  <sodipodi:namedview
     id="namedview1"
     pagecolor="#ffffff"
     bordercolor="#000000"
     borderopacity="0.25"
     inkscape:showpageshadow="2"
     inkscape:pageopacity="0.0"
     inkscape:pagecheckerboard="0"
     inkscape:deskcolor="#d1d1d1"
     inkscape:document-units="mm"
     inkscape:zoom="0.44097222"
     inkscape:cx="395.71654"
     inkscape:cy="561.25984"
     inkscape:window-width="1366"
     inkscape:window-height="697"
     inkscape:window-x="-8"
     inkscape:window-y="-8"
     inkscape:window-maximized="1"
     inkscape:current-layer="layer1" />
  <defs
     id="defs1" />
  <g
     inkscape:label="Layer 1"
     inkscape:groupmode="layer"
     id="layer1">
    <path
       style="fill:#000000;stroke-width:0.264583"
       id="path4"
       d="m 72.550003,158.3748 c 3.134074,0.0134 6.258796,-0.1505 9.380884,-0.41421 4.019378,-0.34281 8.028197,-0.81116 12.024207,-1.36143 1.678471,-0.26114 3.358351,-0.4836 5.053808,-0.58614 0,0 -1.51489,-1.08862 -1.51489,-1.08862 v 0 c -1.686719,0.0744 -3.344746,0.34136 -5.006385,0.6398 -3.974203,0.57792 -7.963789,1.07265 -11.967945,1.38825 -3.178821,0.2415 -6.363438,0.3981 -9.551982,0.27274 z" />
    <circle
       id="path5"
       style="fill:#000000;stroke:#000000;stroke-width:0.264583"
       cx="111.6"
       cy="187.20001"
       r="0.079919413" />
    <path
       style="fill:#000000;stroke-width:0.264583"
       id="path6"
       d="m 84.992238,157.13236 c 0.49394,3.31773 0.699024,6.65982 0.765236,10.01075 -0.05322,3.32632 -0.20655,6.70963 -1.218769,9.9078 -0.684337,2.16222 -1.155012,2.86572 -2.190657,4.87626 -1.858267,2.99692 -4.295339,5.59567 -7.386545,7.3426 -1.859648,1.05095 -2.809632,1.28069 -4.804963,1.97224 -5.089853,1.32033 -8.997148,0.82961 -13.894869,-0.82016 -1.230701,-0.54531 -2.720858,-1.137 -3.847949,-1.90084 -0.110392,-0.0748 -0.089,-0.25998 -0.180409,-0.35708 -0.486235,-0.51646 -1.061108,-0.94544 -1.539208,-1.46944 -1.303983,-1.42918 -1.591921,-2.08758 -2.617552,-3.76191 -2.093081,-4.17534 -2.999814,-8.79717 -2.979827,-13.45384 0.0045,-1.05151 0.100428,-2.10064 0.150643,-3.15096 0.162422,-1.06455 0.246004,-2.14416 0.487272,-3.19365 1.525556,-6.636 5.678403,-12.36473 9.744549,-17.66208 4.616516,-5.3501 10.130568,-9.95356 16.465087,-13.13857 1.119068,-0.56267 2.286614,-1.02325 3.429923,-1.53487 3.7724,-1.5385 7.776784,-2.74817 11.888914,-2.76827 2.289212,-0.0112 2.923945,0.20946 5.138002,0.61575 2.496408,0.62098 4.949804,1.56908 7.076125,3.04826 0.333497,0.232 0.558179,0.59093 0.851809,0.87168 3.28558,3.14151 1.24545,0.86996 4.29504,4.64022 4.83157,6.97804 6.36454,14.77619 7.41586,23.02266 0.60354,7.75939 0.46034,15.62799 -0.86314,23.31218 -0.30683,1.7815 -0.7226,3.54251 -1.0839,5.31376 -1.7187,7.49796 -4.30846,14.74557 -6.64655,22.06062 -1.63295,5.10892 -1.6431,5.29549 -3.09082,10.37871 -1.862281,6.99285 -3.349637,14.08446 -4.235197,21.26781 -0.16074,2.23294 -0.403722,4.60601 0.649565,6.66303 1.044438,1.54959 2.992118,2.31819 4.783422,2.60275 0.32077,0.0446 0.64154,0.0892 0.96231,0.13381 0,0 -1.503,-1.12678 -1.503,-1.12678 v 0 c -0.33032,-0.0537 -0.66065,-0.10736 -0.99097,-0.16104 -0.554422,-0.10669 -0.71074,-0.11303 -1.230639,-0.30103 -0.193704,-0.07 -0.727175,-0.37205 -0.56978,-0.23917 2.069539,1.74706 0.672518,0.26862 0.298929,-0.12459 -1.168289,-1.99494 -0.959255,-4.42853 -0.881108,-6.65184 0.717765,-7.23388 2.067936,-14.38255 3.900838,-21.41792 1.41784,-5.0875 1.42755,-5.28886 3.04355,-10.39828 2.31654,-7.32433 4.90575,-14.57257 6.68443,-22.05679 0.37308,-1.76821 0.80054,-3.52581 1.11923,-5.30463 1.37423,-7.67041 1.56315,-15.53735 0.983,-23.29384 -1.03682,-8.22242 -2.56281,-16.04588 -7.28468,-23.05493 -0.6863,-0.87038 -1.3142,-1.79017 -2.0589,-2.61114 -2.54054,-2.80074 -6.946672,-5.63994 -10.567342,-6.91373 -0.786003,-0.27652 -1.604301,-0.45085 -2.406454,-0.67628 -2.209562,-0.38305 -2.858598,-0.59913 -5.139663,-0.5653 -4.098621,0.0608 -8.079314,1.30371 -11.820589,2.88398 -3.092558,1.4193 -3.972602,1.70949 -6.921812,3.54345 -4.877739,3.03321 -9.214929,6.87541 -12.939101,11.2379 -4.07593,5.28998 -8.336785,11.02874 -9.912776,17.65548 -0.250116,1.0517 -0.335679,2.13585 -0.503518,3.20377 -0.0571,1.05222 -0.160414,2.10294 -0.171291,3.15665 -0.04815,4.66398 0.821412,9.29349 2.874515,13.49694 1.012378,1.70505 1.267275,2.33068 2.568692,3.78971 2.277245,2.55304 5.430038,4.13068 8.531307,5.4437 4.926406,1.61957 8.837601,2.07895 13.932952,0.70942 1.978684,-0.70196 2.976777,-0.95939 4.823034,-2.01065 3.108402,-1.76991 5.552014,-4.40097 7.421724,-7.42044 1.029052,-1.98987 1.534726,-2.76374 2.222545,-4.90296 1.029875,-3.20306 1.187945,-6.59575 1.2699,-9.93063 -0.02646,-3.32421 -0.242015,-6.62502 -0.537361,-9.93527 z" />
  </g>
</svg>
