<?xml version="1.0" encoding="UTF-8" standalone="no"?>
<!-- Created with Inkscape (http://www.inkscape.org/) -->

<svg
   width="210mm"
   height="297mm"
   viewBox="0 0 210 297"
   version="1.1"
   id="svg1"
   sodipodi:docname="zo.svg"
   inkscape:version="1.4.2 (f4327f4, 2025-05-13)"
   xmlns:inkscape="http://www.inkscape.org/namespaces/inkscape"
   xmlns:sodipodi="http://sodipodi.sourceforge.net/DTD/sodipodi-0.dtd"
   xmlns="http://www.w3.org/2000/svg"
   xmlns:svg="http://www.w3.org/2000/svg">
  <sodipodi:namedview
     id="namedview1"
     pagecolor="#ffffff"
     bordercolor="#000000"
     borderopacity="0.25"
     inkscape:showpageshadow="2"
     inkscape:pageopacity="0.0"
     inkscape:pagecheckerboard="0"
     inkscape:deskcolor="#d1d1d1"
     inkscape:document-units="mm"
     inkscape:zoom="0.44097222"
     inkscape:cx="395.71654"
     inkscape:cy="561.25984"
     inkscape:window-width="1366"
     inkscape:window-height="697"
     inkscape:window-x="-8"
     inkscape:window-y="-8"
     inkscape:window-maximized="1"
     inkscape:current-layer="layer1" />
  <defs
     id="defs1" />
  <g
     inkscape:label="Layer 1"
     inkscape:groupmode="layer"
     id="layer1">
    <path
       style="fill:#000000;stroke-width:0.264583"
       id="path6"
       d="m 63.816309,151.24461 c 4.597942,0.47413 9.262226,1.60359 13.44088,3.62781 1.235393,0.59844 2.390823,1.34956 3.586234,2.02434 5.971807,4.49446 10.268217,10.59301 12.586623,17.6929 0.475367,1.45576 0.773518,2.96353 1.160278,4.4453 1.455695,6.6668 1.391473,13.47636 0.747114,20.22707 -0.17567,1.92984 -0.500755,3.86761 -1.17262,5.69201 -0.384569,0.91226 -0.55263,0.19662 1.394108,1.13656 -0.748585,-1.82484 -0.509876,-4.62858 -0.502258,-6.53902 0.183771,-6.86316 1.102786,-13.74901 3.081864,-20.33722 0.492535,-1.63961 1.106903,-3.24013 1.660353,-4.86019 2.091225,-5.37099 4.802625,-10.53721 8.223145,-15.18869 1.69932,-2.31086 2.41337,-2.96174 4.33528,-5.02499 2.97452,-2.81106 6.16945,-5.45163 9.92495,-7.13635 1.09852,-0.42613 2.24302,-0.72018 3.42493,-0.70538 0.4001,0.0293 0.79992,0.0522 1.20108,0.0699 0.89248,0.28771 -2.73368,-1.70351 -0.88596,-0.49387 0.0786,0.0514 0.15707,0.10314 0.2355,0.15486 0,0 1.86088,0.72557 1.86088,0.72557 v 0 c -0.0829,-0.0532 -0.1659,-0.10634 -0.24861,-0.15986 -0.79677,-0.51497 -1.64559,-1.28727 -2.55636,-1.39543 -0.39982,-0.0158 -0.79801,-0.0576 -1.19847,-0.054 -1.17318,0.0508 -2.29668,0.37852 -3.37541,0.83751 -3.69003,1.79252 -6.81842,4.4911 -9.75407,7.32417 -1.94297,2.12405 -2.58093,2.69857 -4.288,5.08167 -3.37018,4.7048 -6.02468,9.91169 -8.096284,15.30403 -0.560678,1.61998 -1.179099,3.22111 -1.682038,4.85994 -2.010635,6.55164 -3.012543,13.38804 -3.387865,20.21744 -0.07874,2.14248 -0.335539,4.455 0.209375,6.5553 1.763075,1.02881 1.724242,1.74098 2.135593,0.57152 0.580342,-1.89279 0.877421,-3.86482 0.993518,-5.83843 0.482134,-6.81985 0.477935,-13.68733 -0.986348,-20.40607 -1.029502,-3.94659 -1.149265,-5.12334 -2.886599,-8.86327 -1.980091,-4.26251 -4.794774,-8.38818 -8.444558,-11.40674 -1.528567,-1.2642 -3.245416,-2.28171 -4.868127,-3.42256 -1.213038,-0.68034 -2.386422,-1.43679 -3.639116,-2.041 -4.299212,-2.07364 -9.067509,-3.17711 -13.769766,-3.82043 z" />
    <path
       style="fill:#000000;stroke-width:0.264583"
       id="path7"
       d="m 73.354598,183.56702 c 7.057663,-0.10499 14.110034,-0.41174 21.162436,-0.68998 7.293236,-0.33906 14.585866,-0.49609 21.883246,-0.25674 1.98235,0.0537 3.92223,0.42693 5.81884,0.9786 0,0 -1.47729,-1.13652 -1.47729,-1.13652 v 0 c -1.86715,-0.50787 -3.7732,-0.83087 -5.71575,-0.84573 -7.22046,-0.12127 -14.43207,0.0941 -21.644987,0.44179 -7.191197,0.2736 -14.39015,0.56692 -21.587369,0.37454 z" />
  </g>
</svg>
