<?xml version="1.0" encoding="UTF-8" standalone="no"?>
<!-- Created with Inkscape (http://www.inkscape.org/) -->

<svg
   width="210mm"
   height="297mm"
   viewBox="0 0 210 297"
   version="1.1"
   id="svg1"
   sodipodi:docname="zu.svg"
   inkscape:version="1.4.2 (f4327f4, 2025-05-13)"
   xmlns:inkscape="http://www.inkscape.org/namespaces/inkscape"
   xmlns:sodipodi="http://sodipodi.sourceforge.net/DTD/sodipodi-0.dtd"
   xmlns="http://www.w3.org/2000/svg"
   xmlns:svg="http://www.w3.org/2000/svg">
  <sodipodi:namedview
     id="namedview1"
     pagecolor="#ffffff"
     bordercolor="#000000"
     borderopacity="0.25"
     inkscape:showpageshadow="2"
     inkscape:pageopacity="0.0"
     inkscape:pagecheckerboard="0"
     inkscape:deskcolor="#d1d1d1"
     inkscape:document-units="mm"
     inkscape:zoom="0.44097222"
     inkscape:cx="395.71654"
     inkscape:cy="561.25984"
     inkscape:window-width="1366"
     inkscape:window-height="697"
     inkscape:window-x="-8"
     inkscape:window-y="-8"
     inkscape:window-maximized="1"
     inkscape:current-layer="layer1" />
  <defs
     id="defs1" />
  <g
     inkscape:label="Layer 1"
     inkscape:groupmode="layer"
     id="layer1">
    <path
       style="fill:#000000;stroke-width:0.264583"
       id="path7"
       d="m 48.457492,148.14907 c 2.901458,6.94405 4.634225,14.30595 6.397038,21.60018 1.794748,8.17692 3.164242,16.44963 3.9692,24.78279 0.19246,3.04714 0.525213,6.08245 0.795901,9.12299 0.04098,0.51183 0.09954,1.02291 0.102872,1.53686 -0.0071,0.0411 0.0088,0.0829 0.01315,0.12437 0,0 1.733661,0.99663 1.733661,0.99663 v 0 c 0.02736,-0.0732 0.03588,-0.14117 0.02506,-0.22305 -0.01934,-0.53207 -0.08142,-1.05969 -0.162578,-1.58583 -0.398881,-3.07499 -0.78063,-6.15373 -1.041413,-9.24393 -0.952297,-8.38626 -2.444028,-16.69992 -4.253447,-24.94296 -1.70075,-7.17307 -3.352258,-14.38691 -5.80734,-21.34849 z" />
    <path
       style="fill:#000000;stroke-width:0.264583"
       id="path8"
       d="m 56.858214,172.32969 c 1.826734,-3.62161 4.166386,-6.95584 6.429285,-10.31261 2.543969,-3.65547 5.308507,-6.85368 9.008666,-9.35721 1.705856,-1.01949 3.554997,-1.68744 5.544147,-1.13009 1.490867,0.41774 1.49655,0.0782 1.396659,0.70956 4.315566,4.07873 7.17087,9.41856 10.255245,14.42989 2.195925,3.43623 4.047307,7.1194 6.490282,10.39719 1.407001,1.8878 1.854705,2.20324 3.518307,3.83736 2.283085,1.92674 4.840815,3.44446 7.659425,4.47678 2.21528,0.81135 4.7369,0.64968 7.03923,0.57876 2.61822,-0.32282 5.25721,-0.90296 7.622,-2.11628 1.18535,-0.60816 1.60332,-0.98247 2.66286,-1.76555 2.61289,-2.24895 4.71458,-4.9933 6.64469,-7.82972 1.04164,-1.78616 2.15923,-3.53814 3.11715,-5.37238 0.33024,-0.52136 0.32318,-1.15661 0.60724,-1.69201 0.23373,-0.33236 0.33413,-0.72399 0.38999,-1.11992 0.0491,-0.42752 0.0366,-0.85942 0.0405,-1.28908 7.9e-4,-0.31493 -0.002,-0.62982 0.003,-0.94477 0.0173,-0.87244 0.0294,-0.1527 -1.89694,-1.2162 0,0 1.59017,1.16871 1.59017,1.16871 v 0 c -1.61781,-1.12881 -1.4805,-1.59824 -1.46481,-0.85427 0.007,0.31674 0.007,0.63347 0.01,0.95024 0.004,0.42193 0.006,0.845 -0.0301,1.26574 -0.0444,0.3767 -0.13403,0.7432 -0.35288,1.06088 -0.28214,0.54697 -0.28662,1.16558 -0.57404,1.71529 -0.88428,1.86197 -1.96039,3.63584 -2.98909,5.41855 -1.88698,2.84481 -4.01379,5.54592 -6.62116,7.77166 -1.02623,0.75744 -1.47871,1.15366 -2.62337,1.74435 -2.33184,1.2033 -4.93512,1.7995 -7.52332,2.102 -1.93982,0.0533 -2.78595,0.15995 -4.73078,-0.13016 -0.76536,-0.11416 -1.50408,-0.36959 -2.26628,-0.50319 -0.23305,-0.0408 -0.49381,0.0787 -0.70958,-0.0184 -1.49667,-0.67343 -2.76482,-1.77259 -4.0478,-2.75899 -1.667453,-1.61416 -2.136824,-1.946 -3.551836,-3.81488 -2.480821,-3.27655 -4.362477,-6.96952 -6.568623,-10.42375 -3.05885,-4.97804 -5.863172,-10.27662 -10.046634,-14.41994 -1.017939,-0.6364 -1.999091,-1.33582 -3.053821,-1.90919 -2.378791,-1.29315 -4.874042,-0.62566 -7.03685,0.72595 -3.642876,2.54509 -6.451499,5.80871 -8.965506,9.45969 -2.272353,3.36126 -4.588746,6.69815 -6.660677,10.1889 z" />
    <path
       style="fill:#000000;stroke-width:0.264583"
       id="path9"
       d="m 127.00243,129.67487 c 1.75148,6.81714 3.04587,13.73715 4.27476,20.66378 2.095,11.16688 3.55038,22.43009 4.93054,33.70216 0.70176,6.02665 1.58331,12.02954 2.36597,18.04554 0.144,1.24763 0.32138,2.49606 0.36068,3.75302 -0.1489,0.69988 1.88879,1.61618 1.72719,0.85711 5.3e-4,-0.14028 0.0161,-0.29397 -0.0118,-0.4427 0,0 -1.85298,-0.72516 -1.85298,-0.72516 v 0 c 0.2121,-0.0963 0.0837,0.16535 0.062,0.30626 0.24175,0.73178 2.00245,1.83311 1.842,0.89122 -0.11256,-1.28948 -0.31703,-2.56989 -0.51636,-3.84797 -0.9638,-6.06764 -1.98141,-12.12634 -2.73715,-18.22526 -1.47007,-11.27593 -2.98165,-22.5457 -4.99578,-33.74078 -1.1271,-6.81369 -2.31789,-13.61709 -3.71037,-20.38218 z" />
  </g>
</svg>
